<?xml version="1.0" encoding="utf-8"?>
<!-- Generator: Adobe Illustrator 17.0.0, SVG Export Plug-In . SVG Version: 6.00 Build 0)  -->
<!DOCTYPE svg PUBLIC "-//W3C//DTD SVG 1.1//EN" "http://www.w3.org/Graphics/SVG/1.1/DTD/svg11.dtd">
<svg version="1.1" id="Layer_1" xmlns="http://www.w3.org/2000/svg" xmlns:xlink="http://www.w3.org/1999/xlink" x="0px" y="0px"
	 width="80px" height="80px" viewBox="0 0 80 80" enable-background="new 0 0 80 80" xml:space="preserve">
<g>
	<g>
		<linearGradient id="SVGID_1_" gradientUnits="userSpaceOnUse" x1="13.9747" y1="2.3676" x2="91.3183" y2="79.4844">
			<stop  offset="0" style="stop-color:#2DC2E0"/>
			<stop  offset="0.0825" style="stop-color:#2FBBDC"/>
			<stop  offset="0.2159" style="stop-color:#2BACD3"/>
			<stop  offset="0.3837" style="stop-color:#2694C5"/>
			<stop  offset="0.5791" style="stop-color:#2376B1"/>
			<stop  offset="0.7953" style="stop-color:#20539D"/>
			<stop  offset="0.8925" style="stop-color:#224193"/>
		</linearGradient>
		<path fill="url(#SVGID_1_)" d="M65.641,34.643l3.546,3.546l9.872-9.873l-9.872-9.872l-9.872,9.872l2.372,2.372
			c-2.102,0.659-4.371,0.976-6.941,0.976c-2.7,0-5.016-0.332-7.176-1.045l2.303-2.303L40,18.444l-3.129,3.129L25.672,10.385
			c0.351-0.828,0.536-1.726,0.536-2.653c0-1.814-0.707-3.52-1.99-4.803c-2.649-2.648-6.958-2.648-9.607,0
			c-2.648,2.649-2.648,6.958,0,9.606c1.283,1.283,2.989,1.99,4.803,1.99c0.927,0,1.826-0.186,2.654-0.537l6.009,6.003
			c-0.912-0.078-1.851-0.117-2.824-0.117c-4.102,0-7.612,0.679-10.896,2.116l-3.546-3.546l-9.872,9.872l9.872,9.873l9.872-9.873
			l-2.372-2.372c2.102-0.659,4.371-0.976,6.941-0.976c2.7,0,5.016,0.332,7.176,1.045l-2.303,2.303L40,38.189l3.129-3.129
			l11.199,11.188c-0.351,0.828-0.536,1.726-0.536,2.653c0,1.814,0.706,3.52,1.99,4.803c1.324,1.324,3.064,1.986,4.803,1.986
			c1.739,0,3.479-0.662,4.803-1.986c1.283-1.283,1.99-2.989,1.99-4.803c0-1.815-0.707-3.52-1.99-4.803
			c-1.283-1.283-2.989-1.989-4.803-1.989c-0.927,0-1.826,0.186-2.654,0.537l-6.009-6.004c0.912,0.078,1.852,0.118,2.825,0.118
			C58.847,36.759,62.358,36.08,65.641,34.643z M69.187,25.649l2.668,2.667l-2.668,2.668l-2.668-2.668L69.187,25.649z M10.813,30.984
			l-2.667-2.668l2.667-2.667l2.667,2.667L10.813,30.984z M19.416,9.431c-0.454,0-0.88-0.177-1.201-0.498
			c-0.662-0.662-0.662-1.739,0-2.402c0.331-0.331,0.766-0.497,1.201-0.497c0.435,0,0.87,0.166,1.201,0.497
			c0.321,0.321,0.497,0.747,0.497,1.201c0,0.454-0.177,0.88-0.497,1.201C20.296,9.254,19.869,9.431,19.416,9.431z M37.332,28.316
			L40,25.649l2.668,2.667L40,30.984L37.332,28.316z M60.584,47.203c0.453,0,0.88,0.177,1.2,0.497l0,0
			c0.321,0.321,0.498,0.747,0.498,1.201c0,0.454-0.177,0.88-0.498,1.201c-0.662,0.662-1.739,0.662-2.402,0
			c-0.321-0.321-0.497-0.747-0.497-1.201c0-0.454,0.177-0.88,0.498-1.201C59.704,47.379,60.131,47.203,60.584,47.203z"/>
		<linearGradient id="SVGID_2_" gradientUnits="userSpaceOnUse" x1="-7.3758" y1="23.7809" x2="69.9678" y2="100.8976">
			<stop  offset="0" style="stop-color:#2DC2E0"/>
			<stop  offset="0.0825" style="stop-color:#2FBBDC"/>
			<stop  offset="0.2159" style="stop-color:#2BACD3"/>
			<stop  offset="0.3837" style="stop-color:#2694C5"/>
			<stop  offset="0.5791" style="stop-color:#2376B1"/>
			<stop  offset="0.7953" style="stop-color:#20539D"/>
			<stop  offset="0.8925" style="stop-color:#224193"/>
		</linearGradient>
		<path fill="url(#SVGID_2_)" d="M34.056,35.709L16.683,59.249l5.684,10.521l-3.773,9.287h30.924l-3.773-9.287l5.684-10.521
			L34.056,35.709z M35.635,58.682c0,0.871-0.708,1.579-1.579,1.579c-0.871,0-1.579-0.708-1.579-1.579s0.708-1.579,1.579-1.579
			C34.927,57.104,35.635,57.812,35.635,58.682z M31.509,47.74v4.776c-2.419,1.003-4.126,3.389-4.126,6.167
			c0,3.68,2.994,6.673,6.673,6.673s6.673-2.994,6.673-6.673c0-2.778-1.707-5.164-4.126-6.167V47.74l8.806,11.933l-3.996,7.397
			H26.698l-3.996-7.397L31.509,47.74z M26.163,73.963l0.731-1.799h14.325l0.731,1.799H26.163z"/>
	</g>
</g>
<g>
	<defs>
		<rect id="SVGID_3_" x="-209.536" y="-6.182" width="179.431" height="133.306"/>
	</defs>
	<clipPath id="SVGID_4_">
		<use xlink:href="#SVGID_3_"  overflow="visible"/>
	</clipPath>
</g>
</svg>
