<?xml version="1.0" encoding="utf-8"?>
<!-- Generator: Adobe Illustrator 17.0.0, SVG Export Plug-In . SVG Version: 6.00 Build 0)  -->
<!DOCTYPE svg PUBLIC "-//W3C//DTD SVG 1.1//EN" "http://www.w3.org/Graphics/SVG/1.1/DTD/svg11.dtd">
<svg version="1.1" id="Layer_1" xmlns="http://www.w3.org/2000/svg" xmlns:xlink="http://www.w3.org/1999/xlink" x="0px" y="0px"
	 width="80px" height="80px" viewBox="0 0 80 80" enable-background="new 0 0 80 80" xml:space="preserve">
<g>
	<g>
		<linearGradient id="SVGID_1_" gradientUnits="userSpaceOnUse" x1="-11.3825" y1="84.0463" x2="125.8334" y2="-34.2433">
			<stop  offset="0" style="stop-color:#49C2CC"/>
			<stop  offset="1" style="stop-color:#2A4188"/>
		</linearGradient>
		<path fill="url(#SVGID_1_)" d="M57.458,10.003H24.062c-4.529,0.017-3.804,5.076-3.804,8.112c0,1.069,0.855,1.924,1.923,1.924
			c1.069,0,1.924-0.855,1.924-1.924c0-0.912-0.513-4.219,1.001-4.264h32.352c0.912,0,1.653,0.741,1.653,1.653V61.73
			c-0.011,1.439-3.091,1.192-4.002,1.192c-1.069,0-1.924,0.855-1.924,1.924s0.855,1.906,1.924,1.924
			c7.276,0.122,7.683-1.004,7.851-4.848V15.504C62.959,12.469,60.493,10.003,57.458,10.003L57.458,10.003z"/>
		<linearGradient id="SVGID_2_" gradientUnits="userSpaceOnUse" x1="-11.8209" y1="83.5377" x2="125.395" y2="-34.7518">
			<stop  offset="0" style="stop-color:#49C2CC"/>
			<stop  offset="1" style="stop-color:#2A4188"/>
		</linearGradient>
		<path fill="url(#SVGID_2_)" d="M67.265,0.406H34.62c-3.966-0.008-4.555,2.466-4.555,5.501c0,1.069,0.855,1.924,1.923,1.924
			c1.068,0,1.944-0.855,1.924-1.924c-0.018-0.983,0.238-1.624,1.001-1.653h32.352c0.912,0,1.653,0.741,1.653,1.653v46.226
			c-0.011,1.439-0.48,1.192-1.392,1.192c-1.069,0-1.924,0.855-1.924,1.924s0.856,1.901,1.924,1.924
			c5.021,0.109,5.225-1.258,5.24-4.848V5.907C72.765,2.871,70.3,0.406,67.265,0.406L67.265,0.406z"/>
	</g>
</g>
<linearGradient id="SVGID_3_" gradientUnits="userSpaceOnUse" x1="-10.6045" y1="84.9488" x2="126.6114" y2="-33.3408">
	<stop  offset="0" style="stop-color:#49C2CC"/>
	<stop  offset="0.1331" style="stop-color:#44ABC0"/>
	<stop  offset="0.4932" style="stop-color:#3672A2"/>
	<stop  offset="0.7606" style="stop-color:#2D4E8F"/>
	<stop  offset="0.9034" style="stop-color:#2A4188"/>
</linearGradient>
<path fill="url(#SVGID_3_)" d="M45.087,22.174H12.735c-3.035,0-5.501,2.466-5.501,5.501v46.418c0,3.035,2.466,5.501,5.501,5.501
	h32.351c3.036,0,5.501-2.466,5.501-5.501V27.675C50.574,24.64,48.108,22.174,45.087,22.174L45.087,22.174z M46.726,74.079
	c0,0.912-0.741,1.653-1.654,1.653h-32.35c-0.912,0-1.653-0.741-1.653-1.653V27.675c0-0.912,0.741-1.653,1.653-1.653h32.351
	c0.912,0,1.654,0.74,1.654,1.653L46.726,74.079L46.726,74.079z"/>
<g>
	<g>
		<linearGradient id="SVGID_4_" gradientUnits="userSpaceOnUse" x1="-12.0259" y1="83.3" x2="125.19" y2="-34.9896">
			<stop  offset="0" style="stop-color:#49C2CC"/>
			<stop  offset="1" style="stop-color:#2A4188"/>
		</linearGradient>
		<path fill="url(#SVGID_4_)" d="M39.441,50.195c-0.606-2.953-2.43-5.47-4.922-6.999h2.396c0.314,0.773,1.071,1.318,1.955,1.318
			c1.163,0,2.108-0.946,2.108-2.108c0-1.162-0.946-2.108-2.108-2.108c-0.883,0-1.641,0.545-1.955,1.318h-5.837v-1.376h-4.333v1.376
			h-5.837c-0.314-0.773-1.071-1.318-1.955-1.318c-1.163,0-2.108,0.946-2.108,2.108c0,1.162,0.946,2.108,2.108,2.108
			c0.883,0,1.641-0.545,1.955-1.318h2.396c-2.492,1.531-4.315,4.047-4.922,6.999h-1.595v4.333h4.333v-4.333h-1.118
			c0.806-3.317,3.425-5.937,6.742-6.743v1.118h4.333v-1.118c3.317,0.806,5.937,3.425,6.743,6.743h-1.117v4.333h4.333v-4.333
			C41.035,50.195,39.441,50.195,39.441,50.195z"/>
		<linearGradient id="SVGID_5_" gradientUnits="userSpaceOnUse" x1="-8.9066" y1="86.9184" x2="128.3093" y2="-31.3712">
			<stop  offset="0" style="stop-color:#49C2CC"/>
			<stop  offset="1" style="stop-color:#2A4188"/>
		</linearGradient>
		<path fill="url(#SVGID_5_)" d="M32.983,57.807l1.673-3.097l-4.954-6.713v4.292c0.513,0.28,0.859,0.824,0.859,1.448
			c0,0.911-0.739,1.65-1.65,1.65c-0.911,0-1.65-0.739-1.65-1.65c0-0.625,0.347-1.169,0.859-1.448v-4.292l-4.954,6.713l1.673,3.097
			H32.983z"/>
		<linearGradient id="SVGID_6_" gradientUnits="userSpaceOnUse" x1="-5.6838" y1="90.6568" x2="131.5321" y2="-27.6327">
			<stop  offset="0" style="stop-color:#49C2CC"/>
			<stop  offset="1" style="stop-color:#2A4188"/>
		</linearGradient>
		<polygon fill="url(#SVGID_6_)" points="25.111,59.389 24.24,61.529 28.912,61.529 33.582,61.529 32.713,59.389 		"/>
	</g>
</g>
</svg>
