<?xml version="1.0" encoding="utf-8"?>
<!-- Generator: Adobe Illustrator 17.0.0, SVG Export Plug-In . SVG Version: 6.00 Build 0)  -->
<!DOCTYPE svg PUBLIC "-//W3C//DTD SVG 1.1//EN" "http://www.w3.org/Graphics/SVG/1.1/DTD/svg11.dtd">
<svg version="1.1" id="Layer_1" xmlns="http://www.w3.org/2000/svg" xmlns:xlink="http://www.w3.org/1999/xlink" x="0px" y="0px"
	 width="80px" height="80px" viewBox="0 0 80 80" enable-background="new 0 0 80 80" xml:space="preserve">
<g>
	<g>
		<linearGradient id="SVGID_1_" gradientUnits="userSpaceOnUse" x1="39.2218" y1="33.3551" x2="41.3612" y2="37.0968">
			<stop  offset="0.0054" style="stop-color:#37C3DC"/>
			<stop  offset="0.1779" style="stop-color:#36BAD7"/>
			<stop  offset="0.4193" style="stop-color:#2EAACE"/>
			<stop  offset="0.7011" style="stop-color:#2094C2"/>
			<stop  offset="1" style="stop-color:#0C78B2"/>
		</linearGradient>
		<polygon fill="url(#SVGID_1_)" points="41.458,36.622 41.458,32.241 38.216,36.622 		"/>
		<linearGradient id="SVGID_2_" gradientUnits="userSpaceOnUse" x1="31.1324" y1="9.419" x2="70.2991" y2="77.919">
			<stop  offset="0.0054" style="stop-color:#37C3DC"/>
			<stop  offset="0.1779" style="stop-color:#36BAD7"/>
			<stop  offset="0.4193" style="stop-color:#2EAACE"/>
			<stop  offset="0.7011" style="stop-color:#2094C2"/>
			<stop  offset="1" style="stop-color:#0C78B2"/>
		</linearGradient>
		<path fill="url(#SVGID_2_)" d="M65.252,54.43c7.525-4.528,12.373-11.601,12.373-19.555c0-13.669-14.299-24.75-31.938-24.75
			S13.75,21.206,13.75,34.875c0,13.669,14.299,24.75,31.938,24.75c2.133,0,4.216-0.165,6.232-0.475
			c2.869,2.782,10.464,8.5,23.988,7.884C75.908,67.034,66.909,66.017,65.252,54.43z M34.46,41.392
			c-0.228,0.239-0.567,0.36-1.008,0.36h-6.514c-0.492,0-0.885-0.142-1.168-0.422c-0.284-0.28-0.428-0.616-0.428-0.997
			c0-0.242,0.083-0.544,0.256-0.923c0.167-0.369,0.354-0.664,0.557-0.879c0.785-0.814,1.502-1.521,2.134-2.102
			c0.644-0.593,1.094-0.974,1.376-1.164c0.468-0.33,0.864-0.67,1.176-1.003c0.306-0.329,0.542-0.67,0.701-1.013
			c0.156-0.336,0.235-0.668,0.235-0.987c0-0.341-0.082-0.649-0.243-0.916c-0.161-0.267-0.384-0.478-0.662-0.625
			c-0.281-0.15-0.592-0.226-0.925-0.226c-0.711,0-1.256,0.305-1.665,0.932c-0.029,0.044-0.102,0.189-0.276,0.684
			c-0.145,0.414-0.314,0.74-0.502,0.969c-0.211,0.258-0.518,0.388-0.912,0.388c-0.346,0-0.638-0.117-0.868-0.348
			c-0.231-0.23-0.347-0.543-0.347-0.929c0-0.431,0.097-0.884,0.288-1.347c0.192-0.463,0.482-0.889,0.861-1.266
			c0.379-0.376,0.865-0.683,1.444-0.913c0.577-0.229,1.26-0.345,2.03-0.345c0.925,0,1.728,0.149,2.387,0.441
			c0.435,0.199,0.821,0.475,1.149,0.822c0.327,0.347,0.586,0.752,0.768,1.205c0.182,0.454,0.274,0.932,0.274,1.42
			c0,0.763-0.193,1.468-0.572,2.093c-0.371,0.612-0.757,1.1-1.146,1.45c-0.378,0.339-1.019,0.879-1.905,1.603
			c-0.874,0.715-1.48,1.274-1.801,1.664c-0.072,0.081-0.145,0.171-0.217,0.267h4.257c0.502,0,0.895,0.109,1.17,0.323
			c0.288,0.226,0.435,0.535,0.435,0.919C34.8,40.866,34.686,41.156,34.46,41.392z M45.516,38.713
			c-0.259,0.18-0.624,0.268-1.117,0.268h-0.351v1.457c0,0.5-0.118,0.883-0.35,1.14c-0.237,0.261-0.555,0.394-0.945,0.394
			c-0.385,0-0.701-0.136-0.942-0.404c-0.235-0.261-0.353-0.642-0.353-1.13v-1.457h-4.254c-0.606,0-1.073-0.145-1.388-0.429
			c-0.32-0.291-0.482-0.686-0.482-1.176c0-0.133,0.024-0.27,0.073-0.404c0.046-0.128,0.115-0.264,0.205-0.403
			c0.086-0.13,0.173-0.257,0.264-0.378l0.328-0.434l4.69-6.275c0.316-0.425,0.571-0.727,0.779-0.922
			c0.232-0.22,0.516-0.33,0.841-0.33c0.7,0,1.534,0.299,1.534,1.729v6.661h0.192c0.479,0,0.873,0.068,1.17,0.202
			c0.347,0.158,0.523,0.488,0.523,0.987C45.933,38.216,45.793,38.52,45.516,38.713z M54.833,41.653
			c-0.246,0.212-0.553,0.32-0.911,0.32c-0.321,0-0.599-0.094-0.825-0.283c-0.206-0.171-0.432-0.431-0.693-0.797l-1.6-2.351
			l-1.639,2.35c-0.273,0.379-0.499,0.642-0.692,0.805c-0.214,0.183-0.486,0.276-0.808,0.276c-0.353,0-0.659-0.114-0.909-0.335
			C46.5,41.41,46.37,41.14,46.37,40.838c0-0.297,0.173-0.687,0.53-1.196l2.109-3.022l-1.858-2.502
			c-0.364-0.465-0.541-0.87-0.541-1.236c0-0.302,0.122-0.566,0.363-0.786c0.235-0.214,0.543-0.323,0.914-0.323
			c0.328,0,0.606,0.096,0.827,0.285c0.198,0.17,0.421,0.428,0.68,0.785l1.412,1.929l1.37-1.928c0.266-0.372,0.493-0.633,0.693-0.798
			c0.22-0.181,0.494-0.273,0.815-0.273c0.364,0,0.671,0.106,0.915,0.316c0.252,0.217,0.38,0.484,0.38,0.794
			c0,0.212-0.05,0.417-0.149,0.612c-0.09,0.179-0.229,0.389-0.412,0.627l-1.856,2.499l2.109,3.022
			c0.368,0.527,0.547,0.923,0.547,1.214C55.217,41.165,55.088,41.433,54.833,41.653z M63.366,34.114
			c-0.394,0.712-0.763,1.603-1.094,2.648c-0.145,0.473-0.24,0.847-0.295,1.137c-0.06,0.305-0.124,0.701-0.193,1.186
			c-0.071,0.491-0.134,0.873-0.189,1.136c-0.131,0.642-0.32,1.083-0.577,1.345c-0.263,0.27-0.613,0.407-1.042,0.407
			c-0.415,0-0.755-0.149-1.01-0.441c-0.248-0.285-0.374-0.701-0.374-1.235c0-0.391,0.082-0.925,0.244-1.586
			c0.161-0.653,0.425-1.447,0.787-2.356c0.361-0.909,0.819-1.854,1.361-2.811c0.481-0.851,1.055-1.711,1.705-2.564h-4.35
			c-0.542,0-0.942-0.1-1.223-0.307c-0.294-0.217-0.444-0.552-0.444-0.997c0-0.485,0.168-0.808,0.5-0.96
			c0.287-0.13,0.669-0.193,1.167-0.193h5.895c0.611,0,1.047,0.097,1.338,0.299c0.307,0.215,0.462,0.562,0.462,1.031
			c0,0.291-0.159,0.648-0.485,1.094c-0.298,0.407-0.639,0.858-1.021,1.353C64.153,32.785,63.764,33.395,63.366,34.114z"/>
	</g>
	<linearGradient id="SVGID_3_" gradientUnits="userSpaceOnUse" x1="-1.7121" y1="28.1987" x2="37.4546" y2="96.6987">
		<stop  offset="0.0054" style="stop-color:#37C3DC"/>
		<stop  offset="0.1779" style="stop-color:#36BAD7"/>
		<stop  offset="0.4193" style="stop-color:#2EAACE"/>
		<stop  offset="0.7011" style="stop-color:#2094C2"/>
		<stop  offset="1" style="stop-color:#0C78B2"/>
	</linearGradient>
	<path fill="url(#SVGID_3_)" d="M16.167,51c-7.875-9.708-6.75-19.25-4.354-25.688c0,0-10.063,6.5-9.563,17S11.375,58,13.063,58.75
		c0,0-1.396,9.292-9.229,10.583c0,0,11.917,1.167,20.417-6.625c0,0,7.208,0.958,11.625-0.208C35.875,62.5,24.042,60.708,16.167,51z"
		/>
</g>
</svg>
